Coordinates
version=1
nRows=33
nColumns=33
inDegrees=yes

Units are S.I. units (second, meters, Newtons, ...)
Angles are in degrees.

endheader
time	ground_thorax_rot_x	ground_thorax_rot_y	ground_thorax_rot_z	ground_thorax_tx	ground_thorax_ty	ground_thorax_tz	clav_prot_r	clav_elev_r	scapula_abduction_r	scapula_elevation_r	scapula_upward_rot_r	scapula_winging_r	shoulder_elv_r	plane_of_elev_r	axial_rot_r	elbow_flexion_r	pro_sup_r	wrist_flex_r	wrist_dev_r	clav_prot_l	clav_elev_l	scapula_abduction_l	scapula_elevation_l	scapula_upward_rot_l	scapula_winging_l	shoulder_elv_l	plane_of_elev_l	axial_rot_l	elbow_flexion_l	pro_sup_l	wrist_flex_l	wrist_dev_l	
3.5500	-41.019593	-7.528118	13.102560	-192.819833	823.383391	-1.466879	11.434264	-45.000000	42.882692	-45.000000	-44.922468	2423.190644	-824.235339	145.127353	180.000000	1449.911435	48.034816	23.919264	11.297867	16.209780	39.978142	-40.848684	-45.000000	-39.954754	-995.121129	-455.070141	133.351523	-159.993755	2168.234587	28.194768	7.062188	-22.889568	
3.5600	-40.995664	-7.496832	13.167642	-189.054502	823.331824	-1.372034	11.462576	-45.000000	43.006700	-45.000000	-44.860813	2423.466997	-824.050862	144.967589	180.000000	1450.155343	47.127789	23.649679	11.390052	16.346081	40.166674	-41.083471	-45.000000	-39.420547	-995.147622	-455.163220	133.347219	-159.972702	2168.316128	27.340818	7.342797	-22.800067	
3.5700	-40.966742	-7.482982	13.240850	-185.153074	823.203542	-1.253809	11.480299	-45.000000	43.128616	-45.000000	-44.751529	2423.751324	-823.884183	144.818420	180.000000	1450.363208	46.154802	23.374748	11.512936	16.495969	40.365373	-41.327987	-44.999999	-38.868610	-995.184715	-455.268494	133.331960	-159.895541	2168.385809	26.456297	7.662817	-22.693315	
3.5800	-40.939567	-7.472621	13.295043	-181.122217	822.979158	-1.113587	11.494624	-45.000000	43.256435	-45.000000	-44.552535	2424.038178	-823.751944	144.670710	180.000000	1450.524170	45.152352	23.103943	11.670492	16.610488	40.563825	-41.572092	-44.999999	-38.275110	-995.231342	-455.383034	133.292387	-159.751711	2168.436007	25.590577	8.016600	-22.567573	
3.5900	-40.915973	-7.454057	13.312026	-176.969262	822.638225	-0.953092	11.497509	-45.000000	43.401433	-45.000000	-44.205111	2424.324867	-823.665479	144.536672	180.000000	1450.636733	44.149559	22.843620	11.863235	16.702799	40.758626	-41.820642	-44.999998	-37.644732	-995.298851	-455.504775	133.236886	-159.531794	2168.472764	24.785379	8.388180	-22.421533	
3.6000	-40.900789	-7.415001	13.270820	-172.702071	822.161141	-0.774539	11.489283	-45.000000	43.575678	-45.000000	-43.657337	2424.613003	-823.637851	144.426792	180.000000	1450.696779	43.182000	22.596973	12.087359	16.771287	40.954151	-42.078382	-44.999996	-36.971205	-995.384328	-455.635382	133.164110	-159.228480	2168.494008	24.085686	8.765631	-22.256799	
3.6100	-40.894465	-7.352778	13.169636	-168.329053	821.530944	-0.580886	11.461569	-45.000000	43.780831	-45.000000	-42.896289	2424.910251	-823.668968	144.358899	180.000000	1450.713252	42.271519	22.361763	12.330917	16.851749	41.159424	-42.356249	-44.999993	-36.269956	-995.490117	-455.778652	133.084013	-158.843976	2168.503835	23.519888	9.135111	-22.076401	
3.6200	-40.900223	-7.262888	13.003659	-163.859185	820.735084	-0.376151	11.418170	-45.000000	44.013079	-45.000000	-41.927057	2425.217779	-823.761332	144.330888	180.000000	1450.685969	41.451694	22.138724	12.586057	16.939509	41.379627	-42.653083	-44.999988	-35.535960	-995.610183	-455.935456	132.990492	-158.374520	2168.494813	23.114946	9.488037	-21.884581	
3.6300	-40.919307	-7.149768	12.781479	-159.302279	819.766525	-0.165648	11.358862	-45.000000	44.259683	-45.000000	-40.793506	2425.540833	-823.904549	144.339407	180.000000	1450.625774	40.746313	21.928192	12.841487	17.033309	41.610815	-42.969307	-44.999979	-34.780531	-995.743785	-456.101547	132.886210	-157.818662	2168.462163	22.881610	9.819646	-21.686337	
3.6400	-40.952556	-7.014585	12.513107	-154.669500	818.624406	0.043949	11.282587	-45.000000	44.495598	-45.000000	-39.550501	2425.881993	-824.089341	144.369629	180.000000	1450.535910	40.179136	21.730474	13.089537	17.135689	41.853158	-43.301416	-44.999962	-34.009802	-995.893156	-456.272181	132.770622	-157.167761	2168.398881	22.822429	10.127088	-21.487497	
3.6500	-41.000802	-6.863508	12.213518	-149.973354	817.314018	0.244882	11.185121	-45.000000	44.694436	-45.000000	-38.272407	2426.252102	-824.298157	144.412694	180.000000	1450.428901	39.756907	21.546121	13.322950	17.247637	42.101861	-43.643718	-44.999933	-33.237567	-996.060351	-456.439339	132.643838	-156.422813	2168.302675	22.929407	10.411367	-21.294115	
3.6600	-41.063286	-6.698261	11.892736	-145.227610	815.846420	0.428910	11.060585	-45.000000	44.839740	-45.000000	-36.998348	2426.649176	-824.526070	144.457784	180.000000	1450.307941	39.480220	21.376933	13.541347	17.374147	42.353489	-43.986335	-44.999879	-32.470832	-996.250207	-456.594044	132.503735	-155.585424	2168.170199	23.188848	10.669916	-21.109847	
3.6700	-41.136271	-6.539759	11.567055	-140.446830	814.237716	0.588201	10.913237	-45.000000	44.932693	-45.000000	-35.771553	2427.082282	-824.760506	144.506786	180.000000	1450.177591	39.334623	21.219878	13.739163	17.496638	42.601518	-44.304652	-44.999784	-31.716798	-996.467308	-456.732206	132.353709	-154.671259	2168.001827	23.579596	10.905550	-20.938329	
3.6800	-41.212571	-6.403007	11.250786	-135.646081	812.508150	0.716239	10.748606	-45.000000	44.980394	-45.000000	-34.613265	2427.543997	-824.999824	144.555398	180.000000	1450.035908	39.299945	21.070774	13.914516	17.605528	42.840703	-44.576038	-44.999613	-30.980241	-996.719438	-456.851292	132.196786	-153.697830	2167.801284	24.080175	11.116613	-20.781626	
3.6900	-41.288313	-6.304320	10.953635	-130.840517	810.681160	0.808593	10.578079	-45.000000	44.997659	-45.000000	-33.543901	2428.035655	-825.239322	144.607399	180.000000	1449.883621	39.351828	20.924880	14.065857	17.683291	43.068860	-44.778092	-44.999306	-30.260359	-997.007412	-456.948060	132.030263	-152.681151	2167.567378	24.673533	11.305646	-20.640665	
3.7000	-41.363139	-6.234321	10.665130	-126.045155	808.782351	0.863186	10.404051	-45.000000	45.000000	-45.000000	-32.537696	2428.544333	-825.485765	144.659387	180.000000	1449.714397	39.467646	20.781229	14.202030	17.733225	43.283698	-44.910405	-44.998757	-29.546144	-997.334152	-457.018574	131.858792	-151.622191	2167.303038	25.349730	11.469533	-20.515310	
3.7100	-41.436242	-6.190468	10.378045	-121.274896	806.838671	0.880217	10.234906	-45.000000	45.000000	-45.000000	-31.583046	2429.068504	-825.736934	144.712895	180.000000	1449.523581	39.630015	20.637824	14.327753	17.750999	43.485520	-44.975979	-44.997775	-28.836859	-997.697472	-457.062678	131.680298	-150.505922	2167.005742	26.105239	11.610732	-20.405112	
3.7200	-41.508455	-6.163040	10.087871	-116.544257	804.877230	0.861457	10.074764	-45.000000	45.000000	-45.000000	-30.665043	2429.598416	-825.998637	144.767311	180.000000	1449.309847	39.820224	20.492865	14.445122	17.751199	43.674814	-44.998809	-44.996010	-28.144467	-998.087665	-457.082712	131.494219	-149.323107	2166.677425	26.941517	11.727913	-20.309399	
3.7300	-41.580574	-6.143022	9.789917	-111.868399	802.924927	0.809943	9.920437	-45.000000	45.000000	-45.000000	-29.779987	2430.128741	-826.269110	144.822082	180.000000	1449.080009	40.022722	20.347742	14.558634	17.748055	43.850581	-45.000000	-44.992865	-27.482338	-998.496499	-457.076070	131.295272	-148.054227	2166.316125	27.861487	11.822195	-20.226334	
3.7400	-41.655116	-6.125403	9.479850	-107.264106	801.008026	0.729588	9.771774	-45.000000	45.000000	-45.000000	-28.922411	2430.657282	-826.549722	144.877633	180.000000	1448.835927	40.227142	20.201808	14.668076	17.739791	44.014626	-45.000000	-44.987187	-26.848520	-998.907672	-457.047912	131.088703	-146.707702	2165.925726	28.867158	11.894249	-20.155124	
3.7500	-41.728244	-6.114470	9.160629	-102.751817	799.152582	0.625560	9.626892	-45.000000	45.000000	-45.000000	-28.109447	2431.182308	-826.830092	144.926660	180.000000	1448.582000	40.434479	20.055830	14.772875	17.712734	44.162928	-45.000000	-44.977137	-26.241369	-999.314284	-457.004809	130.878586	-145.301074	2165.512084	29.949829	11.945731	-20.093607	
3.7600	-41.798030	-6.111060	8.834627	-98.354829	797.383633	0.503924	9.487471	-45.000000	45.000000	-45.000000	-27.337267	2431.701959	-827.109199	144.972163	180.000000	1448.321119	40.649545	19.910522	14.866860	17.659165	44.298181	-45.000000	-44.958797	-25.646748	-999.706033	-456.955409	130.674083	-143.882689	2165.084612	31.089906	11.975839	-20.039349	
3.7700	-41.857234	-6.139196	8.532711	-94.099170	795.725336	0.371979	9.365206	-45.000000	45.000000	-45.000000	-26.683124	2432.203659	-827.368513	144.988432	180.000000	1448.063452	40.884552	19.770574	14.954116	17.535163	44.384354	-45.000000	-44.926886	-25.109473	-1000.071149	-456.899756	130.472582	-142.516417	2164.658175	32.244155	11.987590	-19.986771	
3.7800	-41.906596	-6.155592	8.215818	-90.010490	794.199499	0.237442	9.237418	-45.000000	45.000000	-45.000000	-26.021527	2432.689000	-827.625646	145.010857	180.000000	1447.805863	41.144298	19.640179	15.028662	17.402023	44.453960	-45.000000	-44.867098	-24.541537	-1000.413473	-456.847894	130.296959	-141.245632	2164.231239	33.388234	11.976424	-19.933663	
3.7900	-41.939361	-6.171355	7.899406	-86.112391	792.825477	0.108271	9.109359	-45.000000	45.000000	-45.000000	-25.379867	2433.149861	-827.871456	145.031699	180.000000	1447.554620	41.438727	19.522587	15.088318	17.252309	44.492010	-45.000000	-44.767332	-23.955759	-1000.721108	-456.802234	130.145766	-140.112065	2163.807889	34.492532	11.944061	-19.877296	
3.8000	-41.955415	-6.167977	7.568739	-82.423411	791.618704	-0.008514	8.975766	-45.000000	45.000000	-45.000000	-24.683208	2433.584867	-828.120422	145.080550	180.000000	1447.312705	41.764242	19.418430	15.122366	17.136319	44.526935	-45.000000	-44.619816	-23.311236	-1000.994553	-456.765528	130.024179	-139.125776	2163.378180	35.544857	11.888265	-19.817101	
3.8100	-41.949140	-6.210272	7.291395	-78.958587	790.591802	-0.106463	8.875259	-45.000000	45.000000	-45.000000	-24.112679	2433.981592	-828.339617	145.110154	180.000000	1447.089530	42.117761	19.326452	15.138115	16.975825	44.511876	-45.000000	-44.432217	-22.734156	-1001.221894	-456.721530	129.909499	-138.291863	2162.956863	36.508905	11.815681	-19.750347	
3.8200	-41.929583	-6.255798	7.021471	-75.730514	789.754550	-0.179891	8.786633	-45.000000	45.000000	-45.000000	-23.553096	2434.346596	-828.544913	145.150879	180.000000	1446.881034	42.480944	19.247287	15.135116	16.836737	44.490221	-45.000000	-44.216335	-22.152099	-1001.420121	-456.674406	129.813150	-137.554448	2162.533139	37.385965	11.726256	-19.680366	
3.8300	-41.900563	-6.330937	6.779169	-72.752324	789.115086	-0.223397	8.722683	-45.000000	45.000000	-45.000000	-23.095247	2434.680076	-828.714408	145.171675	180.000000	1446.688673	42.845761	19.179701	15.121615	16.663726	44.442744	-45.000000	-43.993400	-21.615788	-1001.585739	-456.623289	129.727831	-136.873876	2162.120990	38.168801	11.625886	-19.610676	
3.8400	-41.870977	-6.394583	6.520882	-70.037355	788.678802	-0.232468	8.661888	-45.000000	45.000000	-45.000000	-22.639221	2434.988043	-828.860244	145.194710	180.000000	1446.511471	43.196717	19.124835	15.098994	16.493305	44.403662	-45.000000	-43.784598	-21.064098	-1001.738671	-456.579313	129.667841	-136.203538	2161.723311	38.870883	11.514590	-19.547948	
3.8500	-41.843134	-6.465780	6.264492	-67.599544	788.447940	-0.203642	8.611893	-45.000000	45.000000	-45.000000	-22.255660	2435.268403	-828.968325	145.198438	180.000000	1446.354218	43.525839	19.081552	15.072279	16.281125	44.358761	-45.000000	-43.606738	-20.542125	-1001.875401	-456.539104	129.624689	-135.536730	2161.354709	39.488126	11.397931	-19.494937	
3.8600	-41.823606	-6.479595	5.942978	-65.448619	788.418740	-0.135502	8.534880	-45.000000	45.000000	-45.000000	-21.770158	2435.528477	-829.065083	145.226956	180.000000	1446.218345	43.819043	19.052376	15.037070	16.110387	44.359452	-45.000000	-43.464076	-19.939772	-1002.012411	-456.517255	129.618835	-134.853862	2161.010667	40.043070	11.274603	-19.457793	
3.8700	-41.812210	-6.441029	5.561419	-63.590489	788.581597	-0.028872	8.429707	-45.000000	45.000000	-45.000000	-21.204697	2435.767005	-829.146610	145.275756	180.000000	1446.110902	44.074701	19.038167	14.994048	15.964111	44.399472	-45.000000	-43.354568	-19.263200	-1002.139954	-456.508399	129.645452	-134.170481	2160.695588	40.545514	11.149330	-19.438504	
